<?xml version="1.0" encoding="iso-8859-1"?>
<!-- Generator: Adobe Illustrator 16.0.0, SVG Export Plug-In . SVG Version: 6.00 Build 0)  -->
<!DOCTYPE svg PUBLIC "-//W3C//DTD SVG 1.1//EN" "http://www.w3.org/Graphics/SVG/1.1/DTD/svg11.dtd">
<svg version="1.1" id="Capa_1" xmlns="http://www.w3.org/2000/svg" xmlns:xlink="http://www.w3.org/1999/xlink" x="0px" y="0px"
	 width="721.66px" height="721.659px" viewBox="0 0 721.66 721.659" style="enable-background:new 0 0 721.66 721.659;"
	 xml:space="preserve">
<g>
	<g>
		<path d="M144.923,236.937c8.132,0,15.532-2.503,22.63-7.664l151.548-110.809v399.548c0,21.661,19.107,39.961,41.728,39.961
			c22.621,0,41.728-18.3,41.728-39.961V118.473l151.488,110.8c6.848,5.012,14.91,7.655,23.312,7.655
			c12.62,0,24.609-6.157,32.074-16.463c12.908-17.767,8.847-42.798-9.041-55.808L384.544,7.701
			c-0.292-0.218-0.616-0.431-0.955-0.625c-1.386-0.955-2.86-1.836-4.433-2.652l-0.871-0.417c-1.521-0.737-3.083-1.382-4.586-1.892
			c-0.171-0.07-0.677-0.25-0.857-0.302c-1.525-0.482-3.171-0.872-5.007-1.196c-0.589-0.107-1.178-0.195-1.813-0.278
			c-1.396-0.181-2.8-0.292-4.191-0.325L360.802,0l-0.941,0.009c-1.438,0.037-2.852,0.148-4.229,0.329
			c-0.612,0.079-1.215,0.167-1.799,0.273c-1.85,0.329-3.496,0.723-5.044,1.21c-0.274,0.088-0.542,0.186-0.742,0.265
			c-1.544,0.519-3.106,1.164-4.817,1.994l-0.779,0.38c-1.614,0.839-3.19,1.804-4.558,2.772c-0.2,0.125-0.403,0.265-0.566,0.38
			L121.431,164.66c-8.67,6.301-14.354,15.588-16.01,26.154c-1.646,10.529,0.909,21.068,7.182,29.645
			C120.082,230.775,132.164,236.937,144.923,236.937z M123.745,193.684c0.885-5.661,3.941-10.641,8.596-14.025L347.964,22.811
			c0.157-0.102,0.311-0.204,0.445-0.296c0.834-0.598,1.706-1.136,2.55-1.572l-4.076-8.327l4.636,8.063
			c0.793-0.385,1.609-0.733,2.397-0.997l0.482-0.176c0.872-0.278,1.771-0.468,2.708-0.635l0.923-0.139
			c0.751-0.098,1.516-0.163,2.271-0.181l0.501-0.004l0.571,0.009c0.773,0.019,1.529,0.083,2.239,0.171l0.987,0.153
			c0.908,0.163,1.812,0.353,2.485,0.566c0.106,0.042,0.486,0.181,0.603,0.218c0.853,0.288,1.683,0.635,2.462,1.016l0.533,0.246
			c0.945,0.487,1.841,1.034,2.494,1.502c0.269,0.2,0.557,0.39,0.867,0.57l215.438,156.672c9.625,6.997,11.846,20.41,4.934,29.914
			c-4.053,5.601-10.274,8.809-17.062,8.809c-4.441,0-8.716-1.41-12.365-4.08L398.759,92.723c-2.823-2.063-6.556-2.365-9.671-0.784
			c-3.116,1.576-5.077,4.771-5.077,8.267v417.811c0,11.405-10.835,21.415-23.182,21.415s-23.182-10.01-23.182-21.415v-417.82
			c0-3.491-1.961-6.686-5.077-8.267c-1.326-0.677-2.763-1.006-4.196-1.006c-1.933,0-3.853,0.603-5.476,1.79L156.625,214.288
			c-3.959,2.879-7.455,4.103-11.702,4.103c-6.834,0-13.302-3.296-17.326-8.851C124.231,204.941,122.864,199.308,123.745,193.684z"/>
		<path d="M627.425,504.487c-22.102,0-39.414,17.553-39.414,39.961v93.757H133.648v-93.757c0-22.408-17.303-39.961-39.4-39.961
			c-22.106,0-39.418,17.553-39.418,39.961v135.679c0,23.288,16.617,41.532,37.833,41.532h536.344
			c21.206,0,37.823-18.244,37.823-41.532V544.448C666.83,522.04,649.522,504.487,627.425,504.487z M648.284,680.122
			c0,11.299-7.214,22.987-19.277,22.987H92.662c-12.073,0-19.287-11.688-19.287-22.987V544.448c0-12.009,9.171-21.416,20.873-21.416
			c11.693,0,20.854,9.407,20.854,21.416v103.029c0,5.118,4.154,9.272,9.272,9.272h472.909c5.119,0,9.273-4.154,9.273-9.272V544.448
			c0-12.009,9.171-21.416,20.868-21.416c11.692,0,20.858,9.407,20.858,21.416V680.122z"/>
	</g>
</g>
<g>
</g>
<g>
</g>
<g>
</g>
<g>
</g>
<g>
</g>
<g>
</g>
<g>
</g>
<g>
</g>
<g>
</g>
<g>
</g>
<g>
</g>
<g>
</g>
<g>
</g>
<g>
</g>
<g>
</g>
</svg>
